# xmcd
#
# Track frame offsets: 
#        150
#        10710
#        21886
#        33679
#        44005
#        55144
#        71159
#        81585
#        92836
#        105518
#        117932
#        130602
#
# Disc length: 1897 seconds
#
# Revision: 0
# Processed by: cddbd v1.5.2PL0 Copyright (c) Steve Scherf et al.
# Submitted via: ExactAudioCopyFreeDBPlugin 1.0
#
DISCID=a107670c
DTITLE=Johnny Paycheck - Original Billboard Hits
DYEAR=2012
DGENRE=Country
TTITLE0=A-11
TTITLE1=Heartbreak Tennessee
TTITLE2=The Lovin' Machine
TTITLE3=Motel Time Again
TTITLE4=Jukebox Charlie
TTITLE5=The Cave
TTITLE6=Don't Monkey With Another Monkey's Monkey
TTITLE7=(It Won't Be Long) And I'll Be Hating You
TTITLE8=My Heart Keeps Running To You
TTITLE9=If I'm Gonna Sink
TTITLE10=Wherever You Are
TTITLE11=Down On The Corner At A Bar Called Kelly's
EXTD=
EXTT0=
EXTT1=
EXTT2=
EXTT3=
EXTT4=
EXTT5=
EXTT6=
EXTT7=
EXTT8=
EXTT9=
EXTT10=
EXTT11=
PLAYORDER=
